<?xml version="1.0" standalone="no"?>
<!DOCTYPE svg PUBLIC "-//W3C//DTD SVG 20010904//EN"
 "http://www.w3.org/TR/2001/REC-SVG-20010904/DTD/svg10.dtd">
<svg version="1.0" xmlns="http://www.w3.org/2000/svg"
 width="474.000000pt" height="474.000000pt" viewBox="0 0 474.000000 474.000000"
 preserveAspectRatio="xMidYMid meet">
<metadata>
Created by potrace 1.11, written by Peter Selinger 2001-2013
</metadata>
<g transform="translate(0.000000,474.000000) scale(0.100000,-0.100000)"
fill="#000000" stroke="none">
<path d="M4598 3618 c-43 -41 -154 -97 -243 -121 -118 -32 -263 -48 -534 -57
-150 -5 -275 -11 -278 -14 -3 -2 7 -22 21 -43 35 -50 67 -158 69 -229 l2 -57
131 6 c334 16 529 75 697 211 93 77 184 238 175 313 l-3 28 -37 -37z"/>
<path d="M123 3583 c11 -65 76 -180 141 -247 169 -175 404 -255 799 -270 l127
-5 0 52 c0 68 24 168 55 229 14 28 23 54 19 59 -3 5 -98 9 -212 9 -324 0 -525
22 -687 75 -78 26 -179 81 -209 114 -29 31 -39 26 -33 -16z"/>
<path d="M3265 3446 c-130 -25 -271 -84 -405 -170 -30 -19 -56 -33 -58 -32 -1
2 7 20 19 40 19 33 20 40 9 62 -42 78 -523 99 -773 33 -50 -13 -80 -43 -71
-72 3 -12 19 -39 35 -59 l29 -37 -87 50 c-196 114 -357 167 -513 172 -76 2
-83 0 -102 -23 -62 -76 -98 -181 -98 -283 0 -48 4 -62 25 -82 14 -15 36 -25
52 -25 79 0 126 -24 288 -149 l160 -124 -65 7 c-36 3 -89 9 -117 12 l-53 6 1
-28 c0 -16 6 -65 12 -109 l12 -80 70 -38 c39 -22 160 -88 270 -147 l200 -109
42 -168 c26 -103 40 -179 37 -196 -6 -26 -10 -21 -62 69 -64 110 -91 134 -155
141 -86 10 -159 -37 -172 -110 -4 -22 7 -96 34 -216 23 -100 41 -192 41 -204
0 -12 -14 -78 -31 -147 l-32 -125 60 -100 c32 -55 69 -117 82 -137 l23 -38
472 0 c363 0 476 3 488 12 8 7 50 77 92 155 l77 142 -40 130 -40 130 34 194
c43 250 37 284 -60 328 -53 25 -72 24 -134 -7 -50 -25 -55 -31 -104 -131 -49
-98 -52 -102 -58 -73 -6 28 50 334 65 359 4 6 118 76 254 157 136 81 252 152
259 158 7 6 15 56 19 114 6 84 4 102 -7 102 -8 -1 -58 -7 -111 -14 -54 -7 -98
-11 -98 -10 0 2 253 212 291 242 9 7 50 19 90 27 89 16 109 36 109 104 0 89
-42 201 -100 270 -26 30 -36 35 -82 37 -29 2 -84 -3 -123 -10z"/>
</g>
</svg>
